<mxfile host="app.diagrams.net" modified="2024-05-17T18:07:18.320Z" agent="Mozilla/5.0 (Windows NT 10.0; Win64; x64; rv:125.0) Gecko/20100101 Firefox/125.0" version="24.4.4" etag="2sN96_pT-8usIGDRxwTB" type="github">
  <diagram name="Seite-1" id="zbbC0XatOgkS1y3AszTr">
    <mxGraphModel>
      <root>
        <mxCell id="0" />
        <mxCell id="1" parent="0" />
      </root>
    </mxGraphModel>
  </diagram>
</mxfile>
